<?xml version="1.0" encoding="UTF-8"?><svg id="_レイヤー_1" xmlns="http://www.w3.org/2000/svg" viewBox="0 0 1200 300"><defs><style>.cls-1{fill:#000;stroke-width:0px;}</style></defs><rect class="cls-1" x="732.06" y="45.07" width="39.06" height="39.06"/><rect class="cls-1" x="774.83" y=".88" width="39.06" height="39.06"/><rect class="cls-1" x="775.66" y="44.7" width="39.06" height="39.06"/><rect class="cls-1" x="775.82" y="86.23" width="39.06" height="39.06"/><rect class="cls-1" x="773.84" y="130.35" width="39.06" height="39.06"/><rect class="cls-1" x="775.91" y="171.7" width="39.06" height="39.06"/><rect class="cls-1" x="774.25" y="215.96" width="39.06" height="39.06"/><rect class="cls-1" x="817.77" y="259.38" width="39.06" height="39.06"/><rect class="cls-1" x="904.01" y="216.15" width="39.06" height="39.06"/><rect class="cls-1" x="861.66" y="258.9" width="39.06" height="39.06"/><rect class="cls-1" x="818.01" y="44.93" width="39.06" height="39.06"/><rect class="cls-1" x="861.44" y="43.97" width="39.06" height="39.06"/><rect class="cls-1" x="258.8" y="44.18" width="39.06" height="39.06"/><rect class="cls-1" x="388.13" y="86.83" width="39.06" height="39.06"/><rect class="cls-1" x="301.49" y="128.86" width="39.06" height="39.06"/><rect class="cls-1" x="302.94" y="86.44" width="39.06" height="39.06"/><rect class="cls-1" x="301.72" y="174" width="39.06" height="39.06"/><rect class="cls-1" x="302.05" y="215.88" width="39.06" height="39.06"/><rect class="cls-1" x="259.79" y="257.61" width="39.06" height="39.06"/><rect class="cls-1" x="303.34" y="257.96" width="39.06" height="39.06"/><rect class="cls-1" x="345.27" y="260.05" width="39.06" height="39.06"/><rect class="cls-1" x="344.94" y="44.62" width="39.06" height="39.06"/><rect class="cls-1" x="1119.48" y="216.11" width="39.06" height="39.06" transform="translate(2278.02 471.27) rotate(180)"/><rect class="cls-1" x="1160.94" y="259.73" width="39.06" height="39.06" transform="translate(2360.94 558.51) rotate(180)"/><rect class="cls-1" x="990.12" y="215.89" width="39.06" height="39.06" transform="translate(2019.3 470.84) rotate(180)"/><rect class="cls-1" x="1118.72" y="174.08" width="39.06" height="39.06" transform="translate(2276.5 387.23) rotate(180)"/><rect class="cls-1" x="1076.68" y="131.02" width="39.06" height="39.06" transform="translate(2192.42 301.09) rotate(180)"/><rect class="cls-1" x="1033.15" y="171.86" width="39.06" height="39.06" transform="translate(2105.35 382.77) rotate(180)"/><rect class="cls-1" x="1117.89" y="130.07" width="39.06" height="39.06" transform="translate(2274.84 299.19) rotate(180)"/><rect class="cls-1" x="1117.26" y="86.41" width="39.06" height="39.06" transform="translate(2273.58 211.87) rotate(180)"/><rect class="cls-1" x="1076.31" y="44.51" width="39.06" height="39.06" transform="translate(2191.68 128.09) rotate(180)"/><rect class="cls-1" x="990.44" y="87.69" width="39.06" height="39.06" transform="translate(2019.93 214.44) rotate(180)"/><rect class="cls-1" x="1031.69" y="45.17" width="39.06" height="39.06" transform="translate(2102.44 129.39) rotate(180)"/><rect class="cls-1" x="1076.67" y="257.53" width="39.06" height="39.06" transform="translate(2192.4 554.13) rotate(180)"/><rect class="cls-1" x="1033.05" y="258.89" width="39.06" height="39.06" transform="translate(2105.15 556.83) rotate(180)"/><rect class="cls-1" x="603.83" y="214.45" width="39.06" height="39.06" transform="translate(1246.72 467.96) rotate(180)"/><rect class="cls-1" x="645.71" y="258.31" width="39.06" height="39.06" transform="translate(1330.47 555.68) rotate(180)"/><rect class="cls-1" x="474.08" y="214.99" width="39.06" height="39.06" transform="translate(987.21 469.04) rotate(180)"/><rect class="cls-1" x="602.1" y="172.28" width="39.06" height="39.06" transform="translate(1243.25 383.62) rotate(180)"/><rect class="cls-1" x="560.28" y="129.81" width="39.06" height="39.06" transform="translate(1159.62 298.68) rotate(180)"/><rect class="cls-1" x="517.01" y="172.2" width="39.06" height="39.06" transform="translate(1073.08 383.46) rotate(180)"/><rect class="cls-1" x="602.09" y="130.16" width="39.06" height="39.06" transform="translate(1243.23 299.39) rotate(180)"/><rect class="cls-1" x="603.69" y="87.59" width="39.06" height="39.06" transform="translate(1246.43 214.24) rotate(180)"/><rect class="cls-1" x="558.47" y="43.28" width="39.06" height="39.06" transform="translate(1156 125.62) rotate(180)"/><rect class="cls-1" x="475.13" y="86.26" width="39.06" height="39.06" transform="translate(989.32 211.59) rotate(180)"/><rect class="cls-1" x="516.57" y="45.08" width="39.06" height="39.06" transform="translate(1072.2 129.23) rotate(180)"/><rect class="cls-1" x="559.78" y="258.19" width="39.06" height="39.06" transform="translate(1158.61 555.43) rotate(180)"/><rect class="cls-1" x="516.73" y="260.06" width="39.06" height="39.06" transform="translate(1072.52 559.18) rotate(180)"/><rect class="cls-1" x="129.34" y="214.76" width="39.06" height="39.06" transform="translate(297.74 468.58) rotate(180)"/><rect class="cls-1" x="174.33" y="259.62" width="39.06" height="39.06" transform="translate(387.71 558.31) rotate(180)"/><rect class="cls-1" y="216.58" width="39.06" height="39.06" transform="translate(39.06 472.21) rotate(180)"/><rect class="cls-1" x="129.99" y="171.45" width="39.06" height="39.06" transform="translate(299.03 381.96) rotate(180)"/><rect class="cls-1" x="86.44" y="129.35" width="39.06" height="39.06" transform="translate(211.95 297.75) rotate(180)"/><rect class="cls-1" x="43.18" y="172.3" width="39.06" height="39.06" transform="translate(125.43 383.67) rotate(180)"/><rect class="cls-1" x="130.53" y="129.87" width="39.06" height="39.06" transform="translate(300.13 298.81) rotate(180)"/><rect class="cls-1" x="130.95" y="87.97" width="39.06" height="39.06" transform="translate(300.95 215) rotate(180)"/><rect class="cls-1" x="86.03" y="43.94" width="39.06" height="39.06" transform="translate(211.13 126.94) rotate(180)"/><rect class="cls-1" x="2.04" y="86" width="39.06" height="39.06" transform="translate(43.14 211.05) rotate(180)"/><rect class="cls-1" x="44.76" y="43.23" width="39.06" height="39.06" transform="translate(128.57 125.53) rotate(180)"/><rect class="cls-1" x="87.61" y="259.69" width="39.06" height="39.06" transform="translate(214.27 558.43) rotate(180)"/><rect class="cls-1" x="42.98" y="258" width="39.06" height="39.06" transform="translate(125.02 555.06) rotate(180)"/></svg>