<?xml version="1.0" encoding="UTF-8"?><svg id="_レイヤー_1" xmlns="http://www.w3.org/2000/svg" viewBox="0 0 1200 300"><defs><style>.cls-1{fill:#000;stroke-width:0px;}</style></defs><rect class="cls-1" x="718.86" y="55.57" width="35.15" height="35.15"/><rect class="cls-1" x="757.34" y="15.79" width="35.15" height="35.15"/><rect class="cls-1" x="758.09" y="55.23" width="35.15" height="35.15"/><rect class="cls-1" x="758.24" y="92.61" width="35.15" height="35.15"/><rect class="cls-1" x="756.45" y="132.32" width="35.15" height="35.15"/><rect class="cls-1" x="758.32" y="169.53" width="35.15" height="35.15"/><rect class="cls-1" x="756.83" y="209.36" width="35.15" height="35.15"/><rect class="cls-1" x="795.99" y="248.44" width="35.15" height="35.15"/><rect class="cls-1" x="873.61" y="209.54" width="35.15" height="35.15"/><rect class="cls-1" x="835.5" y="248.01" width="35.15" height="35.15"/><rect class="cls-1" x="796.21" y="55.44" width="35.15" height="35.15"/><rect class="cls-1" x="835.29" y="54.57" width="35.15" height="35.15"/><rect class="cls-1" x="292.92" y="54.76" width="35.15" height="35.15"/><rect class="cls-1" x="409.31" y="93.15" width="35.15" height="35.15"/><rect class="cls-1" x="331.34" y="130.97" width="35.15" height="35.15"/><rect class="cls-1" x="332.65" y="92.8" width="35.15" height="35.15"/><rect class="cls-1" x="331.55" y="171.6" width="35.15" height="35.15"/><rect class="cls-1" x="331.84" y="209.29" width="35.15" height="35.15"/><rect class="cls-1" x="293.81" y="246.85" width="35.15" height="35.15"/><rect class="cls-1" x="333" y="247.16" width="35.15" height="35.15"/><rect class="cls-1" x="370.75" y="249.05" width="35.15" height="35.15"/><rect class="cls-1" x="370.44" y="55.16" width="35.15" height="35.15"/><rect class="cls-1" x="1067.53" y="209.49" width="35.15" height="35.15" transform="translate(2170.22 454.14) rotate(180)"/><rect class="cls-1" x="1104.85" y="248.76" width="35.15" height="35.15" transform="translate(2244.85 532.66) rotate(180)"/><rect class="cls-1" x="951.11" y="209.3" width="35.15" height="35.15" transform="translate(1937.37 453.76) rotate(180)"/><rect class="cls-1" x="1066.85" y="171.68" width="35.15" height="35.15" transform="translate(2168.85 378.5) rotate(180)"/><rect class="cls-1" x="1029.01" y="132.92" width="35.15" height="35.15" transform="translate(2093.18 300.98) rotate(180)"/><rect class="cls-1" x="989.83" y="169.67" width="35.15" height="35.15" transform="translate(2014.82 374.5) rotate(180)"/><rect class="cls-1" x="1066.1" y="132.06" width="35.15" height="35.15" transform="translate(2167.35 299.27) rotate(180)"/><rect class="cls-1" x="1065.53" y="92.77" width="35.15" height="35.15" transform="translate(2166.22 220.69) rotate(180)"/><rect class="cls-1" x="1028.68" y="55.06" width="35.15" height="35.15" transform="translate(2092.51 145.28) rotate(180)"/><rect class="cls-1" x="951.39" y="93.92" width="35.15" height="35.15" transform="translate(1937.94 223) rotate(180)"/><rect class="cls-1" x="988.52" y="55.65" width="35.15" height="35.15" transform="translate(2012.2 146.45) rotate(180)"/><rect class="cls-1" x="1029" y="246.78" width="35.15" height="35.15" transform="translate(2093.16 528.71) rotate(180)"/><rect class="cls-1" x="989.74" y="248" width="35.15" height="35.15" transform="translate(2014.64 531.15) rotate(180)"/><rect class="cls-1" x="603.45" y="208.01" width="35.15" height="35.15" transform="translate(1242.05 451.16) rotate(180)"/><rect class="cls-1" x="641.14" y="247.48" width="35.15" height="35.15" transform="translate(1317.43 530.11) rotate(180)"/><rect class="cls-1" x="486.67" y="208.49" width="35.15" height="35.15" transform="translate(1008.49 452.14) rotate(180)"/><rect class="cls-1" x="601.89" y="170.05" width="35.15" height="35.15" transform="translate(1238.92 375.26) rotate(180)"/><rect class="cls-1" x="564.25" y="131.83" width="35.15" height="35.15" transform="translate(1163.66 298.81) rotate(180)"/><rect class="cls-1" x="525.31" y="169.98" width="35.15" height="35.15" transform="translate(1085.77 375.11) rotate(180)"/><rect class="cls-1" x="601.88" y="132.15" width="35.15" height="35.15" transform="translate(1238.91 299.45) rotate(180)"/><rect class="cls-1" x="603.32" y="93.83" width="35.15" height="35.15" transform="translate(1241.79 222.82) rotate(180)"/><rect class="cls-1" x="562.62" y="53.95" width="35.15" height="35.15" transform="translate(1160.4 143.06) rotate(180)"/><rect class="cls-1" x="487.62" y="92.64" width="35.15" height="35.15" transform="translate(1010.39 220.43) rotate(180)"/><rect class="cls-1" x="524.91" y="55.58" width="35.15" height="35.15" transform="translate(1084.98 146.3) rotate(180)"/><rect class="cls-1" x="563.8" y="247.37" width="35.15" height="35.15" transform="translate(1162.75 529.89) rotate(180)"/><rect class="cls-1" x="525.06" y="249.05" width="35.15" height="35.15" transform="translate(1085.27 533.26) rotate(180)"/><rect class="cls-1" x="176.41" y="208.29" width="35.15" height="35.15" transform="translate(387.97 451.72) rotate(180)"/><rect class="cls-1" x="216.89" y="248.66" width="35.15" height="35.15" transform="translate(468.94 532.48) rotate(180)"/><rect class="cls-1" x="60" y="209.92" width="35.15" height="35.15" transform="translate(155.15 454.99) rotate(180)"/><rect class="cls-1" x="176.99" y="169.3" width="35.15" height="35.15" transform="translate(389.13 373.76) rotate(180)"/><rect class="cls-1" x="137.8" y="131.41" width="35.15" height="35.15" transform="translate(310.75 297.98) rotate(180)"/><rect class="cls-1" x="98.87" y="170.07" width="35.15" height="35.15" transform="translate(232.89 375.3) rotate(180)"/><rect class="cls-1" x="177.48" y="131.89" width="35.15" height="35.15" transform="translate(390.11 298.93) rotate(180)"/><rect class="cls-1" x="177.85" y="94.17" width="35.15" height="35.15" transform="translate(390.86 223.5) rotate(180)"/><rect class="cls-1" x="137.43" y="54.55" width="35.15" height="35.15" transform="translate(310.01 144.25) rotate(180)"/><rect class="cls-1" x="61.84" y="92.4" width="35.15" height="35.15" transform="translate(158.83 219.95) rotate(180)"/><rect class="cls-1" x="100.28" y="53.91" width="35.15" height="35.15" transform="translate(235.71 142.97) rotate(180)"/><rect class="cls-1" x="138.85" y="248.72" width="35.15" height="35.15" transform="translate(312.85 532.59) rotate(180)"/><rect class="cls-1" x="98.68" y="247.2" width="35.15" height="35.15" transform="translate(232.52 529.55) rotate(180)"/></svg>